<?xml version="1.0" encoding="utf-8" ?>
<svg xmlns="http://www.w3.org/2000/svg" xmlns:xlink="http://www.w3.org/1999/xlink" width="1024" height="1024">
	<path fill="#1743E3" transform="scale(2 2)" d="M395.717 87.2499C399.513 87.1293 410.582 86.5559 413.594 87.9831C417.768 89.9608 415.706 95.1639 411.898 95.9613C407.994 95.9771 397.209 96.6832 394.128 95.3397C389.592 93.3618 391.878 88.2683 395.717 87.2499Z"/>
	<path fill="#1743E3" transform="scale(2 2)" d="M112.565 387.479C115.486 387.511 124.914 386.584 126.717 388.269C129.456 390.83 127.202 395.255 123.831 395.685C119.706 396.21 114.513 395.747 110.25 395.748L79.4839 395.758C76.0439 395.74 67.3096 396.694 64.6441 394.429C59.648 390.183 67.1948 387.465 71.7092 387.475L112.565 387.479Z"/>
	<path fill="#1743E3" transform="scale(2 2)" d="M256.562 145.095C273.583 144.681 265.57 169.522 265.992 181.126C275.717 181.679 292.501 177.397 295.402 190.641C296.049 193.592 294.939 196.569 293.354 199.021L265.187 241.731C262.305 246.076 260.313 250.083 254.792 251.271L254.574 251.263C241.049 250.609 243.843 238.313 244.605 229.09C245.027 223.981 245.326 218.864 245.627 213.746L233.013 213.784C228.381 213.797 223.351 214.344 219.39 211.433C210.117 204.621 218.566 195.145 222.952 188.576L236.64 168.291C241.445 161.162 247.826 146.049 256.562 145.095ZM256.562 153.003C251.399 159.968 246.386 168.417 241.475 175.748L229.431 193.693C227.321 196.877 224.562 200.341 223.203 203.911C225.262 208.916 251.35 202.025 254.112 207.354C257.394 213.686 247.295 241.471 254.007 243.383C256.776 240.757 259.334 235.767 261.44 232.503L273.075 214.64C275.558 210.855 289.894 193.218 286.765 190.43C281.685 185.905 258.82 193.916 257.41 185.768C255.951 177.339 263.659 155.513 256.562 153.003Z"/>
	<path fill="#1743E3" transform="scale(2 2)" d="M248.623 103.34C257.775 103.293 266.811 103.373 275.905 104.571C356.682 115.209 416.552 190.851 408.235 272.186C401.753 335.579 358.876 384.875 298.041 401.768C289.562 404.122 280.237 406.493 271.38 406.251C270.042 405.44 269.096 404.657 268.664 403.096C267.014 397.132 277.354 397.345 280.902 396.855C362.229 385.642 412.338 308.221 397.58 228.576C384.961 160.481 322.276 110.464 253.513 111.654C238.209 111.919 225.812 114.875 211.16 118.858C208.234 120.467 204.483 121.456 201.366 122.754C155.792 141.735 120.236 184.287 112.875 233.591C112.401 236.77 112.536 245.74 108.851 247.263C101.329 250.371 103.875 237.629 104.294 234.995C111.622 188.929 139.071 148.13 179.303 124.299C184.627 121.145 190.138 117.866 196.096 116.092L196.096 116.092C210.839 108.109 232.296 104.682 248.623 103.34Z"/>
	<path fill="#1743E3" transform="scale(2 2)" d="M196.096 116.092C210.839 108.109 232.296 104.682 248.623 103.34C247.368 104.396 227.381 106.407 222.97 108.065C222.619 108.197 217.711 111.393 216.417 111.962C213.72 113.146 209.518 114.427 206.591 114.937C202.696 115.615 201.351 113.996 197.004 116.413C196.711 116.322 196.356 116.255 196.096 116.092Z"/>
	<path fill="#1743E3" transform="scale(2 2)" d="M286.077 74.146C275.602 72.4497 265.368 71.4019 254.728 71.4659C151.218 72.0885 66.0202 161.405 71.9928 264.874C72.1908 268.304 74.4147 278.327 71.4486 280.917C60.4062 290.56 63.8864 243.964 64.1761 240.042C72.3647 129.205 177.504 46.7967 287.497 65.595C294.869 66.4667 302.301 68.5964 309.415 70.6559C386.412 92.9459 442.23 162.826 447.973 242.626C453.42 318.292 413.348 389.676 346.573 425.853C289.57 456.735 224.401 455.398 166.984 427.069C155.805 421.554 157.096 421.734 144.354 421.74C136.693 421.743 128.967 421.979 121.313 421.757C117.565 421.779 110.963 422.356 107.554 421.669C102.831 420.717 102.838 415.469 106.479 413.265C108.221 412.93 110.419 413.199 112.205 413.216L122.795 413.271C138.977 413.322 153.944 410.154 168.149 417.737C278.662 476.733 413.058 412.121 436.834 289.634C454.74 197.388 397.521 105.633 307.935 79.1133C300.745 76.9849 293.432 75.5611 286.077 74.146Z"/>
	<path fill="#1743E3" transform="scale(2 2)" d="M121.313 421.757C117.565 421.779 110.963 422.356 107.554 421.669C102.831 420.717 102.838 415.469 106.479 413.265C106.935 413.31 109.659 413.444 109.83 413.621L109.238 413.539L109.339 414.118L109.184 413.769C105.79 414.3 101.924 416.884 105.489 419.811C108.503 422.285 123.743 420.747 128.468 421.374C126.134 421.427 123.605 421.303 121.313 421.757Z"/>
	<path fill="#1743E3" transform="scale(2 2)" d="M187.363 251.271C211.762 250.8 231.952 259.382 250.46 274.508C252.442 276.127 254.296 277.965 256.562 279.195C265.641 279.788 274.959 279.044 284.074 279.212C302.945 279.559 335.936 286.467 349.352 300.549C366.691 318.749 368.906 352.374 336.04 350.991C331.199 361.051 327.327 369.227 315.672 373.307C298.607 379.281 280.315 369.674 274.491 352.822C273.655 349.32 269.595 350.955 266.828 350.98L188.268 350.991C187.361 353 186.516 355.035 185.609 357.043C173.409 384.063 136.082 381.644 125.307 350.991C104.567 349.736 101.41 336.409 101.519 319.808C101.689 293.83 106.048 291.856 124.887 278.205C147.783 261.615 158.587 253.96 187.363 251.271ZM188.268 259.77L188.241 270.512C188.224 285.026 190.557 291.707 206.018 292.623C210.179 292.87 217.161 295.414 212.005 299.863C209.729 301.827 204.204 300.805 201.368 300.505C184.049 298.674 179.992 286.649 179.996 271.375L180.014 259.77L179.551 259.949C172.945 262.454 165.862 263.339 159.274 266.125C150.114 269.999 116.677 291.298 112.565 300.751C118.295 300.677 121.293 300.366 121.377 306.983C121.55 320.582 122.859 322.212 109.772 322.004C109.675 332.809 111.262 341.709 124.124 342.723C124.7 340.009 124.953 337.212 125.695 334.537C134.959 301.147 187.949 306.518 188.268 342.723L201.529 342.723L249.055 342.719C256.887 342.717 264.859 342.379 272.674 342.723C274.226 332.154 276.916 324.64 285.794 317.997C299.477 307.76 319.72 310.513 329.878 324.388C334.056 330.096 335.158 335.853 336.04 342.723C355.068 342.859 355.275 333.994 350.502 317.123C338.66 319.586 327.086 310.385 329.734 297.774C309.738 289.872 295.233 287.67 273.832 287.677C253.604 287.683 258.701 291.221 243.763 279.846C226.209 266.48 210.788 259.537 188.268 259.77ZM155.145 320.099C123.387 323.586 126.277 368.593 158.813 367.262C191.107 364.021 183.66 316.313 155.145 320.099ZM302.686 320.099C274.395 322.807 272.12 364.932 307.104 367.262C315.592 364.43 321.292 362.469 325.554 353.977C334.336 336.48 316.584 315.756 302.686 320.099ZM109.772 308.703L109.772 314.01L113.588 314.01L113.588 308.703L109.772 308.703ZM338.164 302.382C338.716 306.38 341.381 308.873 345.368 309.325C343.979 307.114 340.834 302.938 338.164 302.382Z"/>
</svg>
